<svg width="41" height="54" viewBox="0 0 41 54" fill="none" xmlns="http://www.w3.org/2000/svg">
<ellipse cx="20.5" cy="20.6656" rx="20.5" ry="20.6656" fill="black"/>
<path d="M20.5536 54L7.67542 36.9509H33.4318L20.5536 54Z" fill="black"/>
<ellipse cx="20.5" cy="20.6657" rx="16.4" ry="16.5325" fill="#FED801"/>
<path d="M32.4845 19.4206H30.5469C30.0464 14.7253 26.2747 10.9536 21.5794 10.4528V8.51546C21.5794 8.23093 21.3485 8 21.0639 8H19.9361C19.6515 8 19.4206 8.23093 19.4206 8.51546V10.4528C14.7253 10.9536 10.9536 14.7253 10.4528 19.4206H8.51546C8.23093 19.4206 8 19.6515 8 19.9361V21.0642C8 21.3487 8.23093 21.5796 8.51546 21.5796H10.4528C10.9536 26.2747 14.7253 30.0464 19.4206 30.5469V32.4845C19.4206 32.7691 19.6515 33 19.9361 33H21.0642C21.3487 33 21.5796 32.7691 21.5796 32.4845V30.5469C26.2747 30.0464 30.0464 26.2747 30.5469 21.5794H32.4845C32.7691 21.5794 33 21.3485 33 21.0639V19.9361C33 19.6513 32.7691 19.4206 32.4845 19.4206ZM14.4165 21.5794C14.701 21.5794 14.932 21.3485 14.932 21.0639V19.9361C14.932 19.6515 14.701 19.4206 14.4165 19.4206H12.7433C13.2216 15.9678 15.9675 13.2216 19.4204 12.7433V14.4165C19.4204 14.701 19.6513 14.932 19.9358 14.932H21.0637C21.3482 14.932 21.5791 14.701 21.5791 14.4165V12.7433C25.0325 13.2216 27.7783 15.9675 28.2567 19.4206H26.5835C26.299 19.4206 26.068 19.6515 26.068 19.9361V21.0642C26.068 21.3487 26.299 21.5796 26.5835 21.5796H28.2567C27.7783 25.0325 25.0325 27.7783 21.5796 28.2572V26.584C21.5796 26.2995 21.3487 26.0686 21.0642 26.0686H19.9361C19.6515 26.0686 19.4206 26.2995 19.4206 26.584V28.2572C15.9675 27.7783 13.2216 25.0325 12.7433 21.5794H14.4165Z" fill="black"/>
</svg>
