<svg width="41" height="54" viewBox="0 0 41 54" fill="none" xmlns="http://www.w3.org/2000/svg">
<ellipse cx="20.5" cy="20.6656" rx="20.5" ry="20.6656" fill="black"/>
<path d="M20.5536 54L7.67542 36.9509H33.4318L20.5536 54Z" fill="black"/>
<ellipse cx="20.5" cy="20.6657" rx="16.4" ry="16.5325" fill="#FED801"/>
<path d="M20.6361 9.01372C20.6301 9.02348 20.6203 9.07231 20.6124 9.127C20.5748 9.38676 20.4148 9.76372 20.2193 10.0528C20.0553 10.2969 19.8538 10.5274 19.5022 10.8692L19.2178 11.1485L19.0459 11.0352C18.7753 10.8555 18.2479 10.5254 17.9556 10.3536C17.3571 10.002 17.0687 9.87505 16.8771 9.87505C16.3497 9.87895 15.6879 10.4922 15.1072 11.5196C14.9748 11.754 14.7378 12.2305 14.6568 12.4219L14.6094 12.5352L14.5501 12.4883C13.7679 11.9043 13.361 11.6582 13.1497 11.6407C12.9284 11.6231 12.5097 11.7403 12.2568 11.8926C11.7215 12.2129 11.2138 12.7872 10.7121 13.6387C10.4059 14.1582 10.1136 14.75 9.6178 15.8418C9.24446 16.6622 9.05088 17.0645 8.90076 17.3399C8.78817 17.545 8.72891 17.6407 8.56891 17.8731C8.56298 17.8848 8.51953 17.8614 8.47014 17.8243C8.35755 17.7325 8.31212 17.711 8.23311 17.711C8.13237 17.711 8.04545 17.7735 8.0178 17.8653C7.96842 18.0274 7.95064 18.0118 9.04693 18.879C10.0583 19.6817 18.9314 26.7051 24.8731 31.4082C27.4134 33.42 28.1403 33.9844 28.1936 33.9942C28.3852 34.0235 28.5353 33.8028 28.4287 33.6465C28.4109 33.6172 26.6548 32.2168 24.5294 30.5332L20.6637 27.4727L20.7901 27.3282C21.1813 26.8848 21.6158 26.2188 22.6667 24.4512C23.4627 23.1094 23.842 22.502 24.1501 22.0743L24.2351 21.9551L24.9817 22.4473C25.4598 22.7618 25.7679 22.9512 25.8351 22.9747C26.2143 23.0997 26.5561 22.8321 26.9096 22.1329C27.0301 21.8946 27.2534 21.3457 27.4252 20.8672C27.5714 20.461 27.8341 19.754 27.844 19.7442C27.8479 19.7403 27.9546 19.8379 28.083 19.961C28.9699 20.8086 28.9264 20.7754 29.1674 20.7774C29.2899 20.7774 29.3274 20.7676 29.444 20.709C29.9121 20.4766 30.4237 19.7872 31.04 18.5508C31.4094 17.8106 32.0277 16.3418 31.9862 16.3028C31.9763 16.295 31.838 16.2344 31.6741 16.1661C30.3092 15.5957 28.962 14.7676 26.2262 12.8106C24.3022 11.4356 23.6227 10.959 22.9531 10.504C22.7417 10.3594 22.564 10.2364 22.558 10.2305C22.5304 10.1993 20.6736 9.00005 20.6538 9.00005C20.6479 9.00005 20.64 9.0059 20.6361 9.01372ZM20.7013 9.06645C20.7013 9.07231 20.6934 9.08208 20.6815 9.08794C20.6716 9.0938 20.6617 9.08989 20.6617 9.08012C20.6617 9.0684 20.6716 9.05864 20.6815 9.05864C20.6934 9.05864 20.7013 9.06255 20.7013 9.06645ZM17.12 9.96684C17.363 10.0586 17.9615 10.3907 18.5047 10.7383L18.7101 10.8692L18.6094 10.8809C18.2558 10.9219 17.92 11.293 17.4855 12.125C17.4025 12.2813 17.3334 12.4122 17.3314 12.4161C17.3156 12.4356 16.3931 11.5567 15.9724 11.1211L15.6405 10.7774L15.7709 10.6231C16.0494 10.295 16.3516 10.0625 16.6262 9.96489C16.8059 9.90239 16.9482 9.90434 17.12 9.96684ZM22.8425 10.4786C23.3166 10.7989 24.5077 11.6309 24.563 11.6797C24.5748 11.6915 24.5709 11.7051 24.5492 11.7168C24.5294 11.7286 24.5136 11.7481 24.5136 11.7637C24.5136 11.7774 24.484 11.8946 24.4464 12.0215C24.3674 12.2911 24.2311 12.6153 24.1027 12.8379C23.9961 13.0235 23.7472 13.3946 23.7314 13.3946C23.7235 13.3946 23.4074 13.1641 23.0242 12.8809C22.643 12.5977 22.1946 12.2715 22.0306 12.1543C21.8647 12.0372 21.7284 11.9356 21.7284 11.9278C21.7284 11.92 21.7956 11.8418 21.8785 11.752C22.1768 11.4297 22.3467 11.1094 22.4573 10.6661C22.4909 10.5391 22.5205 10.4024 22.5284 10.3614C22.5343 10.3223 22.5442 10.2891 22.5501 10.2891C22.558 10.2891 22.6884 10.375 22.8425 10.4786ZM20.0534 10.9024C20.4603 11.1465 20.8494 11.3946 21.2899 11.6934L21.6494 11.9375L21.5526 12.0352C21.4736 12.1172 21.3472 12.2735 21.2109 12.4629C21.1872 12.4942 21.1477 12.4707 20.7605 12.1993C20.5274 12.0372 20.0968 11.7403 19.8025 11.543C19.5101 11.3438 19.2672 11.1797 19.2632 11.1778C19.2573 11.1719 19.7215 10.7188 19.7353 10.7188C19.7413 10.7188 19.8855 10.8008 20.0534 10.9024ZM15.7432 10.9473L15.8716 11.0782L15.7472 10.9747C15.6247 10.8711 15.6227 10.8711 15.5813 10.9063C15.4845 10.9922 15.2198 11.4239 14.9551 11.9297C14.8682 12.0957 14.7951 12.2266 14.7951 12.2168C14.7951 12.1934 15.0282 11.7383 15.1664 11.5C15.2692 11.3184 15.5971 10.8165 15.6129 10.8165C15.6148 10.8165 15.6741 10.875 15.7432 10.9473ZM18.8445 10.9551L18.8938 10.9942L18.8306 10.9629C18.7951 10.9473 18.7655 10.9278 18.7655 10.9239C18.7655 10.9043 18.7971 10.9161 18.8445 10.9551ZM18.4297 11.002C18.2736 11.086 18.0938 11.2598 17.9417 11.4707C17.8134 11.6504 17.7758 11.6934 17.8292 11.6016C17.9753 11.3477 18.2637 11.0489 18.4395 10.9707C18.5719 10.9102 18.5659 10.9297 18.4297 11.002ZM19.9901 11.7266C19.9901 11.7325 19.9506 11.709 19.9013 11.6758C19.8519 11.6426 19.8124 11.6114 19.8124 11.6055C19.8124 11.5997 19.8519 11.6231 19.9013 11.6563C19.9506 11.6895 19.9901 11.7207 19.9901 11.7266ZM13.2346 11.6954C13.2543 11.709 13.2326 11.711 13.1655 11.7032C13.1121 11.6954 13.0627 11.6875 13.0588 11.6836C13.039 11.6661 13.2069 11.6778 13.2346 11.6954ZM17.7561 11.7481C17.7324 11.7891 17.7027 11.8301 17.6929 11.8418C17.6711 11.8633 17.7106 11.7852 17.7541 11.7188C17.8015 11.6465 17.8035 11.67 17.7561 11.7481ZM13.3334 11.7344C13.3492 11.7442 13.3551 11.754 13.3432 11.754C13.3334 11.754 13.3097 11.7442 13.2938 11.7344C13.278 11.7247 13.2741 11.7149 13.284 11.7149C13.2958 11.7149 13.3176 11.7247 13.3334 11.7344ZM13.5704 11.8633C13.5704 11.8672 13.5526 11.8633 13.5309 11.8516C13.5092 11.8399 13.4914 11.8262 13.4914 11.8204C13.4914 11.8165 13.5092 11.8204 13.5309 11.8321C13.5526 11.8438 13.5704 11.8575 13.5704 11.8633ZM13.758 11.9786L13.7976 12.0098L13.758 11.9903C13.7363 11.9805 13.7008 11.9571 13.679 11.9395L13.6395 11.9082L13.679 11.9278C13.7008 11.9375 13.7363 11.961 13.758 11.9786ZM17.6 12.0274C17.5783 12.0704 17.5546 12.1055 17.5506 12.1055C17.5447 12.1055 17.5585 12.0704 17.5803 12.0274C17.602 11.9844 17.6257 11.9493 17.6297 11.9493C17.6356 11.9493 17.6217 11.9844 17.6 12.0274ZM14.0445 12.1758C14.0445 12.1797 13.9911 12.1485 13.9259 12.1055C13.8608 12.0625 13.8074 12.0215 13.8074 12.0157C13.8074 12.0118 13.8608 12.043 13.9259 12.086C13.9911 12.129 14.0445 12.17 14.0445 12.1758ZM20.7684 12.252C20.8138 12.2852 20.8099 12.2911 20.7329 12.3086C20.6815 12.3204 20.6776 12.3184 20.6993 12.293C20.7131 12.2774 20.719 12.254 20.7111 12.2422C20.6934 12.2149 20.725 12.2188 20.7684 12.252ZM11.6741 12.4278C11.5931 12.5079 11.522 12.5743 11.518 12.5743C11.5121 12.5743 11.5734 12.5079 11.6543 12.4278C11.7353 12.3477 11.8064 12.2813 11.8104 12.2813C11.8163 12.2813 11.7551 12.3477 11.6741 12.4278ZM17.3037 12.4707C17.3037 12.4864 17.2859 12.4707 17.205 12.3829L17.1161 12.2911L17.2109 12.379C17.2622 12.4258 17.3037 12.4668 17.3037 12.4707ZM21.0627 12.4629C21.1576 12.5293 21.5348 12.7969 21.9022 13.0586C22.2677 13.3204 22.6331 13.5782 22.7101 13.6348C22.7892 13.6915 22.8543 13.7422 22.8543 13.75C22.8543 13.7598 22.8346 13.7657 22.8109 13.7657C22.6746 13.7657 22.4435 13.9707 22.238 14.2774C22.1136 14.459 21.8963 14.8575 21.6376 15.3692L21.4657 15.7129L21.1279 15.4688C20.7763 15.2149 19.9329 14.586 19.6721 14.3848L19.522 14.2676L19.6484 13.9922C19.8716 13.5079 20.1422 12.9805 20.2608 12.7989C20.4563 12.502 20.6558 12.3399 20.8198 12.3399C20.8731 12.3399 20.9304 12.3692 21.0627 12.4629ZM17.602 12.7344C18.0247 13.1114 18.562 13.5606 19.0163 13.918C19.2573 14.1075 19.4548 14.2754 19.4548 14.2911C19.4568 14.3262 19.1151 14.9844 19.0005 15.1641C18.8978 15.3282 18.6667 15.6407 18.6213 15.6778C18.5699 15.7188 18.5798 15.7403 18.6904 15.8418C18.8109 15.9512 18.6232 15.7969 17.3768 14.7637C16.4978 14.0352 16.4741 14.0137 16.5017 13.9727C16.7151 13.6817 16.9284 13.3165 17.1773 12.8223C17.2622 12.6543 17.3393 12.5157 17.3452 12.5157C17.3511 12.5157 17.4677 12.6133 17.602 12.7344ZM11.3916 12.7461C11.2178 12.9571 11.1427 13.0704 11.1289 13.1368C11.119 13.1875 11.1289 13.2032 11.2376 13.2872C11.3047 13.3379 11.358 13.3848 11.358 13.3887C11.358 13.3985 11.204 13.2911 11.119 13.2188L11.0538 13.1661L11.1803 12.9922C11.3166 12.8067 11.4904 12.5938 11.5082 12.5938C11.5121 12.5938 11.4608 12.6622 11.3916 12.7461ZM14.7358 12.6934C14.7358 12.7012 14.722 12.7129 14.7042 12.7188C14.6864 12.7247 14.6805 12.7227 14.6884 12.709C14.6943 12.6973 14.6785 12.6661 14.6548 12.6387L14.6074 12.5879L14.6726 12.6329C14.7062 12.6582 14.7358 12.6856 14.7358 12.6934ZM15.1882 13.0372C15.4015 13.2051 15.8183 13.5411 16.1166 13.7832C16.4129 14.0254 16.6795 14.2422 16.7052 14.2618L16.7546 14.2989L16.6222 14.375C15.9862 14.7383 15.3956 15.2754 14.9176 15.92C14.8069 16.0684 14.7872 16.0879 14.7595 16.0665C14.7417 16.0528 14.5146 15.8653 14.2519 15.6504C13.9042 15.3633 13.0134 14.6465 12.8415 14.5157C12.8376 14.5118 12.9245 14.3926 13.0331 14.25C13.3906 13.7793 13.7462 13.4239 14.1808 13.1016C14.3526 12.9747 14.7457 12.7305 14.7813 12.7305C14.7911 12.7305 14.9748 12.8692 15.1882 13.0372ZM26.9393 13.3711C27.2395 13.584 27.6306 13.8575 27.8084 13.9786C27.9842 14.0997 28.1284 14.209 28.1284 14.2247C28.1284 14.3008 27.9763 14.9805 27.9013 15.2403C27.8262 15.4981 27.7709 15.6563 27.5595 16.2012C27.5417 16.2481 27.522 16.2852 27.5161 16.2852C27.5062 16.2852 26.7279 15.7012 26.0405 15.1739L25.6217 14.8555L25.6632 14.7735C25.685 14.7305 25.7541 14.6055 25.8173 14.4981C26.0761 14.0528 26.2321 13.6582 26.3329 13.1934C26.3585 13.0782 26.3822 12.9844 26.3862 12.9844C26.3882 12.9844 26.639 13.1582 26.9393 13.3711ZM16.9087 13.252C16.7743 13.4883 16.6084 13.7598 16.561 13.8165C16.5353 13.8477 16.563 13.793 16.6242 13.6973C16.6835 13.5997 16.7822 13.4356 16.8435 13.3301C16.9027 13.2266 16.9561 13.1407 16.962 13.1407C16.9679 13.1407 16.9422 13.1915 16.9087 13.252ZM11.5417 13.586C11.923 13.8672 12.7171 14.4668 12.7783 14.5196C12.7822 14.5235 12.7724 14.543 12.7566 14.5606C12.6855 14.6407 12.3497 15.2207 12.162 15.5879C11.9882 15.9258 11.7017 16.5274 11.5279 16.9141L11.4785 17.0274L11.0874 16.752C10.8721 16.5997 10.4692 16.3262 10.1926 16.1446C9.91607 15.9629 9.68693 15.8106 9.68298 15.8086C9.67113 15.795 10.1926 14.7012 10.4 14.3008C10.6667 13.7891 11.0005 13.2188 11.0361 13.2188C11.04 13.2188 11.2692 13.3848 11.5417 13.586ZM23.6998 13.4629C23.6938 13.4688 23.682 13.459 23.6761 13.4395C23.6642 13.4122 23.6662 13.4102 23.6859 13.4278C23.6998 13.4415 23.7057 13.4571 23.6998 13.4629ZM23.8697 13.5665C23.9348 13.6192 24.3437 13.9317 24.7763 14.2618C25.2069 14.5918 25.5605 14.8672 25.5605 14.875C25.5605 14.8829 25.5427 14.9356 25.519 14.9942C25.4973 15.0528 25.4558 15.1934 25.4282 15.3067C25.4005 15.42 25.3768 15.5157 25.3729 15.5196C25.3709 15.5235 25.0529 15.295 24.6696 15.0118C24.2845 14.7286 23.84 14.4004 23.68 14.2852C23.518 14.168 23.3877 14.0606 23.3877 14.0489C23.3877 14.0176 23.7215 13.4727 23.7413 13.4727C23.7452 13.4727 23.8025 13.5157 23.8697 13.5665ZM23.0835 13.9043C23.0914 13.92 23.0855 13.92 23.0558 13.9043C23.0321 13.8926 23.0084 13.8731 23.0005 13.8614C22.9926 13.8457 22.9985 13.8457 23.0282 13.8614C23.0519 13.8731 23.0756 13.8926 23.0835 13.9043ZM12.8257 14.459C12.8198 14.4766 12.8099 14.4864 12.8059 14.4805C12.8 14.4747 12.802 14.4629 12.8099 14.4512C12.8277 14.42 12.8395 14.4258 12.8257 14.459ZM12.5827 14.9375C12.5709 14.959 12.5571 14.9766 12.5511 14.9766C12.5472 14.9766 12.5511 14.959 12.563 14.9375C12.5748 14.9161 12.5887 14.8985 12.5946 14.8985C12.5985 14.8985 12.5946 14.9161 12.5827 14.9375ZM13.3946 15.0098C13.4203 15.0411 13.4183 15.043 13.3887 15.0176C13.3689 15.004 13.3531 14.9883 13.3531 14.9844C13.3531 14.9688 13.3689 14.9786 13.3946 15.0098ZM12.5136 15.0547C12.4958 15.086 12.478 15.1133 12.4721 15.1133C12.4682 15.1133 12.4761 15.086 12.4938 15.0547C12.5116 15.0215 12.5294 14.9961 12.5353 14.9961C12.5393 14.9961 12.5314 15.0215 12.5136 15.0547ZM13.7126 15.2676C13.7264 15.2832 13.6731 15.2461 13.5961 15.1836C13.5171 15.1211 13.4519 15.0665 13.4519 15.0606C13.4519 15.0489 13.685 15.2305 13.7126 15.2676ZM12.2114 15.6192C12.0731 15.8868 11.9585 16.1036 11.9546 16.0997C11.9467 16.0938 12.2074 15.5743 12.3497 15.3125C12.5334 14.9766 12.4622 15.1309 12.2114 15.6192ZM13.7976 15.3282C13.8173 15.3497 13.8292 15.3672 13.8232 15.3672C13.8173 15.3672 13.7976 15.3497 13.7778 15.3282C13.758 15.3067 13.7462 15.2891 13.7521 15.2891C13.758 15.2891 13.7778 15.3067 13.7976 15.3282ZM25.0371 15.3282C25.043 15.3379 25.039 15.3477 25.0292 15.3477C25.0173 15.3477 25.0074 15.3379 25.0074 15.3282C25.0074 15.3165 25.0114 15.3086 25.0153 15.3086C25.0213 15.3086 25.0311 15.3165 25.0371 15.3282ZM25.1516 15.42C25.1655 15.4297 25.5645 15.7266 26.0405 16.0801L26.9057 16.7227L26.8069 16.7559C26.4455 16.8711 26.0879 17.4493 25.7106 18.5313C25.6593 18.6758 25.6138 18.8067 25.6099 18.8204C25.604 18.836 25.5032 18.7637 25.3393 18.625C24.8968 18.252 24.478 17.92 23.9309 17.5098C23.7906 17.4024 23.6761 17.3067 23.68 17.2969C23.682 17.2872 23.7472 17.1407 23.8242 16.9727C24.2627 16.0137 24.5669 15.5489 24.8356 15.4239C24.9205 15.3848 25.0983 15.3829 25.1516 15.42ZM15.3087 15.5235C15.2514 15.5879 15.202 15.6407 15.1961 15.6407C15.1901 15.6407 15.2316 15.5879 15.2889 15.5235C15.3462 15.459 15.3956 15.4063 15.4015 15.4063C15.4074 15.4063 15.3659 15.459 15.3087 15.5235ZM30.3862 15.5899C30.9037 15.8692 31.52 16.1622 31.8282 16.2754C31.8815 16.295 31.9289 16.3223 31.9348 16.336C31.9447 16.3633 31.5951 17.2461 31.3798 17.7266C31.1625 18.2168 30.9255 18.6954 30.9176 18.668C30.9116 18.6543 30.7516 18.543 30.56 18.42C30.3684 18.295 29.999 18.0489 29.7383 17.8731L29.2642 17.5508L29.3946 17.295C29.5605 16.9747 29.6988 16.6387 29.8153 16.2911C29.922 15.9649 30.0504 15.4688 30.0366 15.4336C30.0306 15.418 30.0306 15.4063 30.0366 15.4063C30.0425 15.4063 30.2005 15.4883 30.3862 15.5899ZM21.4321 15.752C21.4321 15.7657 21.3176 15.6817 21.3017 15.6563C21.2938 15.6426 21.3195 15.6582 21.359 15.6875C21.3985 15.7188 21.4321 15.7461 21.4321 15.752ZM15.1901 15.6661C15.1901 15.67 15.1704 15.6895 15.1467 15.711L15.1013 15.7481L15.1388 15.7032C15.1743 15.6622 15.1901 15.6504 15.1901 15.6661ZM21.5388 15.75C21.5447 15.7657 21.5427 15.7735 21.5309 15.7676C21.519 15.7618 21.5111 15.7481 21.5111 15.7364C21.5111 15.709 21.525 15.7149 21.5388 15.75ZM15.1111 15.7637C15.1111 15.7676 15.0914 15.7872 15.0677 15.8086L15.0222 15.8457L15.0598 15.8008C15.0953 15.7598 15.1111 15.7481 15.1111 15.7637ZM18.5699 15.8106C18.5956 15.8418 18.5936 15.8438 18.564 15.8184C18.5442 15.8047 18.5284 15.7891 18.5284 15.7852C18.5284 15.7696 18.5442 15.7793 18.5699 15.8106ZM22.1689 16.2715C23.6346 17.3282 23.6069 17.3067 23.5951 17.3555C23.5753 17.4356 23.2198 18.1446 23.0736 18.3926C22.9195 18.6582 22.803 18.8262 22.6825 18.959L22.6055 19.045L22.3013 18.8047C21.918 18.504 21.4874 18.1563 20.9343 17.7051L20.5037 17.3555L20.6045 17.2461C20.8 17.0332 21.0746 16.5879 21.3551 16.0274C21.4242 15.8907 21.4874 15.7852 21.4953 15.7891C21.5032 15.795 21.8074 16.0118 22.1689 16.2715ZM9.70669 15.8711C9.71064 15.879 9.69879 15.8868 9.67903 15.8868C9.65928 15.8868 9.64743 15.879 9.65138 15.8711C9.6573 15.8633 9.66916 15.8555 9.67903 15.8555C9.68891 15.8555 9.70076 15.8633 9.70669 15.8711ZM15.0321 15.8633C15.0321 15.8672 15.0163 15.8829 14.9985 15.8965C14.9669 15.9219 14.965 15.92 14.9906 15.8887C15.0163 15.8575 15.0321 15.8477 15.0321 15.8633ZM18.7595 15.9649C18.7635 15.9649 18.7417 15.9864 18.7121 16.0137C18.6608 16.0567 18.6608 16.0567 18.6943 16.0157C18.7319 15.9727 18.7319 15.9707 18.6746 15.9082L18.6173 15.8457L18.6864 15.9043C18.724 15.9356 18.7576 15.9629 18.7595 15.9649ZM9.62175 15.959C9.602 15.9766 9.60002 15.9747 9.61187 15.9473C9.6178 15.9278 9.62965 15.918 9.63558 15.9239C9.6415 15.9297 9.63558 15.9454 9.62175 15.959ZM14.9235 16.0059C14.8958 16.0469 14.8741 16.0918 14.8741 16.1075C14.8741 16.125 14.9077 16.1719 14.9492 16.2149L15.0222 16.2911L14.9294 16.2168C14.8761 16.1739 14.8346 16.1329 14.8346 16.1231C14.8346 16.1036 14.9511 15.9336 14.965 15.9336C14.9709 15.9336 14.9511 15.9668 14.9235 16.0059ZM19.1111 16.2579C19.2751 16.3946 19.7235 16.7637 20.1087 17.0821C20.4938 17.3985 20.8217 17.668 20.8356 17.6797C20.8534 17.6973 20.8277 17.7247 20.7171 17.8008C20.1067 18.2207 19.5852 18.793 19.1388 19.5293L19.0005 19.7598L18.1176 18.9864C17.6316 18.5606 17.1793 18.1622 17.1121 18.1036L16.9916 17.9981L17.0627 17.8887C17.4242 17.3418 17.9082 16.7637 18.2914 16.4219C18.5304 16.209 18.7714 16.0118 18.7951 16.0118C18.8069 16.0118 18.9492 16.1231 19.1111 16.2579ZM15.1921 16.4942C16.1422 17.3028 16.9185 17.9844 16.9185 18.0137C16.9185 18.0235 16.8415 18.1602 16.7487 18.3165C16.5255 18.6895 16.4089 18.8985 15.9803 19.7032C15.7847 20.0723 15.6188 20.379 15.6148 20.3829C15.6109 20.3868 15.3916 20.2032 15.1269 19.9727C14.6173 19.5293 13.918 18.9336 13.6632 18.7286C13.5408 18.627 13.5131 18.5957 13.523 18.5645C13.5506 18.4786 14.0168 17.5079 14.1669 17.2227C14.3862 16.8106 14.7694 16.168 14.7971 16.168C14.803 16.168 14.9808 16.3145 15.1921 16.4942ZM27.6859 16.4063C27.6938 16.42 27.6682 16.4043 27.6287 16.375C27.5892 16.3438 27.5556 16.3165 27.5556 16.3106C27.5556 16.2969 27.6701 16.3809 27.6859 16.4063ZM27.4904 16.3672C27.4845 16.3829 27.4785 16.377 27.4785 16.3555C27.4766 16.334 27.4825 16.3223 27.4884 16.3301C27.4943 16.336 27.4963 16.3536 27.4904 16.3672ZM28.1482 16.8067C28.4148 16.9981 28.7566 17.2442 28.9087 17.3516C29.0726 17.4688 29.1852 17.5606 29.1832 17.5782C29.1813 17.5957 29.1101 17.7129 29.0252 17.8399C28.9383 17.9688 28.8652 18.086 28.8593 18.1036C28.8514 18.127 28.6677 17.9961 28.1185 17.5801C27.7176 17.2754 27.3699 17.0157 27.3482 17C27.3087 16.9727 27.3087 16.9727 27.3442 16.8692C27.3659 16.8106 27.4173 16.6739 27.4608 16.5625L27.5398 16.3614L27.601 16.4082C27.6366 16.4336 27.8815 16.6133 28.1482 16.8067ZM10.6864 16.5313C10.6864 16.5372 10.6608 16.5235 10.6272 16.5C10.5956 16.4766 10.5679 16.4532 10.5679 16.4493C10.5679 16.4434 10.5956 16.4571 10.6272 16.4805C10.6608 16.504 10.6864 16.5274 10.6864 16.5313ZM26.7082 16.8731C26.4948 17.0137 26.3526 17.209 26.1215 17.6797C26.0405 17.8418 25.9753 17.9668 25.9753 17.959C25.9753 17.9512 26.0227 17.8399 26.082 17.7129C26.2973 17.2422 26.4889 16.9805 26.724 16.8379C26.8464 16.7618 26.8346 16.7891 26.7082 16.8731ZM11.6306 17.1211L11.7037 17.1875L11.6089 17.1231C11.5497 17.0821 11.518 17.0489 11.5259 17.0313C11.5319 17.0176 11.5378 16.9942 11.5378 16.9825C11.5398 16.9688 11.5457 16.9805 11.5497 17.0079C11.5536 17.0352 11.5911 17.086 11.6306 17.1211ZM11.8855 17.3829C12.3141 17.7012 12.9087 18.1661 13.2287 18.4297L13.4499 18.6114L13.4025 18.7129C13.1556 19.2637 12.798 19.9747 12.5768 20.3575C12.3417 20.7637 12.2884 20.8418 12.2608 20.8204C12.2469 20.8106 11.8124 20.4668 11.2929 20.0547C10.6509 19.5469 10.3526 19.2989 10.3585 19.2793C10.3645 19.2657 10.4297 19.1543 10.5047 19.0332C10.7793 18.5899 11.1131 17.9454 11.3877 17.3262C11.443 17.2051 11.4924 17.1055 11.5003 17.1055C11.5082 17.1055 11.682 17.2305 11.8855 17.3829ZM23.6524 17.25C23.6464 17.2676 23.6326 17.2813 23.6227 17.2813C23.6129 17.2813 23.6148 17.2637 23.6287 17.2422C23.6563 17.1993 23.6701 17.2032 23.6524 17.25ZM23.6938 17.379C23.6998 17.3887 23.6938 17.3926 23.678 17.3868C23.6603 17.3809 23.6405 17.3985 23.6247 17.4375C23.6109 17.4707 23.5951 17.4942 23.5911 17.4883C23.5773 17.4766 23.6425 17.3594 23.6642 17.3594C23.6741 17.3594 23.6879 17.3672 23.6938 17.379ZM23.7847 17.4512C23.8104 17.4825 23.8084 17.4844 23.7788 17.459C23.759 17.4454 23.7432 17.4297 23.7432 17.4258C23.7432 17.4102 23.759 17.42 23.7847 17.4512ZM24.0593 17.6641C24.0593 17.67 24.0059 17.6329 23.9408 17.584C23.8756 17.5352 23.8222 17.4903 23.8222 17.4844C23.8222 17.4786 23.8756 17.5157 23.9408 17.5645C24.0059 17.6133 24.0593 17.6582 24.0593 17.6641ZM24.2371 17.8028C24.2371 17.8067 24.2015 17.7832 24.158 17.75C24.1146 17.7168 24.079 17.6836 24.079 17.6778C24.079 17.6739 24.1146 17.6973 24.158 17.7305C24.2015 17.7637 24.2371 17.7969 24.2371 17.8028ZM24.3062 17.8477C24.3259 17.8692 24.3378 17.8868 24.3319 17.8868C24.3259 17.8868 24.3062 17.8692 24.2864 17.8477C24.2667 17.8262 24.2548 17.8086 24.2608 17.8086C24.2667 17.8086 24.2864 17.8262 24.3062 17.8477ZM8.64397 17.879C8.642 17.9082 8.70718 17.9707 9.06669 18.2832C9.12595 18.336 9.06471 18.2911 8.92842 18.1836C8.54916 17.8868 8.58076 17.9161 8.61039 17.879C8.64397 17.8399 8.64792 17.8399 8.64397 17.879ZM20.7111 17.8653C20.6993 17.875 20.6025 17.9532 20.4938 18.0391C20.1067 18.3438 19.6464 18.8575 19.3205 19.3516C19.1901 19.5469 19.1585 19.5879 19.2 19.5079C19.2514 19.4122 19.4943 19.0645 19.6445 18.8731C19.9388 18.5 20.2509 18.1934 20.5926 17.9375C20.7013 17.8555 20.7566 17.8223 20.7111 17.8653ZM24.7111 18.1641C24.8692 18.2891 25.0331 18.4239 25.0766 18.4629C25.12 18.502 24.9916 18.4043 24.7901 18.2461C24.5887 18.0879 24.4069 17.9415 24.3852 17.918L24.3457 17.879L24.3852 17.9082C24.4069 17.9258 24.5531 18.0411 24.7111 18.1641ZM25.9576 18.0372C25.9338 18.0762 25.9299 18.0645 25.9477 18.0137C25.9556 17.9961 25.9655 17.9864 25.9694 17.9922C25.9753 17.9961 25.9694 18.0176 25.9576 18.0372ZM13.5487 18.4024C13.4914 18.5254 13.4617 18.5684 13.4459 18.5528C13.4321 18.5391 13.4341 18.5215 13.4558 18.4981C13.4716 18.4786 13.5151 18.4082 13.5526 18.3418C13.5882 18.2754 13.6217 18.2227 13.6237 18.2266C13.6277 18.2286 13.5941 18.3086 13.5487 18.4024ZM25.2267 18.584C25.2524 18.6153 25.2504 18.6172 25.2208 18.5918C25.201 18.5782 25.1852 18.5625 25.1852 18.5586C25.1852 18.543 25.201 18.5528 25.2267 18.584ZM16.5827 18.7071C16.565 18.7383 16.5472 18.7657 16.5413 18.7657C16.5373 18.7657 16.5452 18.7383 16.563 18.7071C16.5808 18.6739 16.5985 18.6485 16.6045 18.6485C16.6084 18.6485 16.6005 18.6739 16.5827 18.7071ZM13.6198 18.7461C13.6395 18.7676 13.6514 18.7852 13.6455 18.7852C13.6395 18.7852 13.6198 18.7676 13.6 18.7461C13.5803 18.7247 13.5684 18.7071 13.5743 18.7071C13.5803 18.7071 13.6 18.7247 13.6198 18.7461ZM13.9062 18.9942C13.9062 19 13.8529 18.959 13.7877 18.9024C13.7225 18.8457 13.6692 18.7969 13.6692 18.7911C13.6692 18.7852 13.7225 18.8262 13.7877 18.8829C13.8529 18.9395 13.9062 18.9883 13.9062 18.9942ZM16.4543 18.9415C16.4326 18.9844 16.4089 19.0196 16.405 19.0196C16.399 19.0196 16.4129 18.9844 16.4346 18.9415C16.4563 18.8985 16.48 18.8633 16.484 18.8633C16.4899 18.8633 16.4761 18.8985 16.4543 18.9415ZM26.1096 19.3575C26.2874 19.5196 26.6548 19.875 26.9255 20.1485C27.1961 20.4219 27.4232 20.6407 27.4311 20.6329C27.439 20.627 27.4173 20.5918 27.3857 20.5567L27.3284 20.4942L27.3976 20.5528C27.4351 20.584 27.4687 20.6114 27.4706 20.6114C27.4785 20.6133 27.1862 21.3887 27.0815 21.6465C26.7951 22.3457 26.5047 22.7793 26.2341 22.9102C26.0958 22.9786 25.918 22.9727 25.7679 22.8965C25.5269 22.7735 25.5171 22.6797 25.7008 22.1446C25.8489 21.7071 25.8608 21.5801 25.7699 21.4063C25.7008 21.2735 25.5783 21.1407 25.4637 21.0743C25.3729 21.0235 24.885 20.7207 24.8711 20.709C24.8692 20.7051 24.8869 20.6719 24.9126 20.6368C25.0568 20.4454 25.203 20.1094 25.4341 19.4512C25.525 19.1875 25.6059 18.959 25.6099 18.9434C25.6217 18.9141 25.6277 18.92 26.1096 19.3575ZM13.9852 19.0489C14.0109 19.0762 14.0267 19.0977 14.0208 19.0977C14.0168 19.0977 13.9911 19.0762 13.9655 19.0489C13.9398 19.0215 13.924 19 13.9299 19C13.9338 19 13.9595 19.0215 13.9852 19.0489ZM16.3358 19.1563C16.3141 19.1993 16.2904 19.2344 16.2864 19.2344C16.2805 19.2344 16.2943 19.1993 16.3161 19.1563C16.3378 19.1133 16.3615 19.0782 16.3655 19.0782C16.3714 19.0782 16.3576 19.1133 16.3358 19.1563ZM14.1235 19.1661C14.1492 19.1934 14.165 19.2149 14.159 19.2149C14.1551 19.2149 14.1294 19.1934 14.1037 19.1661C14.078 19.1387 14.0622 19.1172 14.0682 19.1172C14.0721 19.1172 14.0978 19.1387 14.1235 19.1661ZM14.2617 19.2832C14.2874 19.3106 14.3032 19.3321 14.2973 19.3321C14.2934 19.3321 14.2677 19.3106 14.242 19.2832C14.2163 19.2559 14.2005 19.2344 14.2064 19.2344C14.2104 19.2344 14.2361 19.2559 14.2617 19.2832ZM14.4 19.4004C14.4257 19.4278 14.4415 19.4493 14.4356 19.4493C14.4316 19.4493 14.4059 19.4278 14.3803 19.4004C14.3546 19.3731 14.3388 19.3516 14.3447 19.3516C14.3487 19.3516 14.3743 19.3731 14.4 19.4004ZM14.5284 19.5079C14.5482 19.5293 14.56 19.5469 14.5541 19.5469C14.5482 19.5469 14.5284 19.5293 14.5087 19.5079C14.4889 19.4864 14.4771 19.4688 14.483 19.4688C14.4889 19.4688 14.5087 19.4864 14.5284 19.5079ZM18.9294 19.7579C18.965 19.795 18.9788 19.8204 18.965 19.8282C18.9531 19.836 18.9432 19.8301 18.9432 19.8165C18.9432 19.8028 18.884 19.7344 18.8109 19.668C18.7101 19.5743 18.7003 19.5625 18.7753 19.6211C18.8306 19.6641 18.8998 19.7266 18.9294 19.7579ZM23.605 19.8614C24.1284 20.25 24.5017 20.5137 24.9126 20.7832L25.2445 21L25.1595 21.0215C24.8079 21.1114 24.2746 21.7383 23.5259 22.9415C23.445 23.0723 23.3699 23.1797 23.362 23.1797C23.285 23.1797 21.1872 21.6407 21.201 21.5938C21.203 21.586 21.278 21.4747 21.3669 21.3497C21.8173 20.711 22.3427 20.1582 22.9255 19.711C23.044 19.6211 23.1546 19.5508 23.1704 19.5547C23.1862 19.5567 23.3817 19.6954 23.605 19.8614ZM23.4687 19.6973C23.4943 19.7286 23.4924 19.7305 23.4627 19.7051C23.443 19.6915 23.4272 19.6758 23.4272 19.6719C23.4272 19.6563 23.443 19.6661 23.4687 19.6973ZM23.5477 19.7559C23.5734 19.7872 23.5714 19.7891 23.5417 19.7637C23.522 19.75 23.5062 19.7344 23.5062 19.7305C23.5062 19.7149 23.522 19.7247 23.5477 19.7559ZM23.6267 19.8145C23.6524 19.8457 23.6504 19.8477 23.6208 19.8223C23.601 19.8086 23.5852 19.793 23.5852 19.7891C23.5852 19.7735 23.601 19.7832 23.6267 19.8145ZM19.4608 20.2129C19.9467 20.6309 20.5729 21.1543 20.9047 21.4219L21.1338 21.6075L21.1022 21.6563C20.9442 21.8926 20.6143 22.459 20.2568 23.1114C20.0198 23.5411 19.8203 23.9004 19.8124 23.9082C19.7946 23.9278 18.9827 23.2891 18.3151 22.7325C18.0504 22.5118 17.8213 22.3204 17.8055 22.3086C17.7817 22.2891 17.7995 22.2403 17.918 22.0059C17.9951 21.8516 18.1788 21.4747 18.325 21.168C18.7022 20.375 18.9887 19.8321 19.0222 19.8438C19.0321 19.8477 19.2277 20.0137 19.4608 20.2129ZM23.7057 19.8731C23.7314 19.9043 23.7294 19.9063 23.6998 19.8809C23.68 19.8672 23.6642 19.8516 23.6642 19.8477C23.6642 19.8321 23.68 19.8418 23.7057 19.8731ZM23.7847 19.9317C23.8104 19.9629 23.8084 19.9649 23.7788 19.9395C23.759 19.9258 23.7432 19.9102 23.7432 19.9063C23.7432 19.8907 23.759 19.9004 23.7847 19.9317ZM25.1674 20.0567C25.1457 20.1036 25.1279 20.1368 25.1279 20.129C25.1259 20.1055 25.1892 19.9551 25.1971 19.9629C25.203 19.9668 25.1892 20.0098 25.1674 20.0567ZM15.1526 20.0489C15.1783 20.0801 15.1763 20.0821 15.1467 20.0567C15.1269 20.043 15.1111 20.0274 15.1111 20.0235C15.1111 20.0079 15.1269 20.0176 15.1526 20.0489ZM23.9427 20.0489C23.9684 20.0801 23.9664 20.0821 23.9368 20.0567C23.9171 20.043 23.9013 20.0274 23.9013 20.0235C23.9013 20.0079 23.9171 20.0176 23.9427 20.0489ZM15.3284 20.2012C15.3659 20.2383 15.3916 20.2696 15.3857 20.2696C15.3798 20.2696 15.3462 20.2383 15.3087 20.2012C15.2711 20.1641 15.2455 20.1329 15.2514 20.1329C15.2573 20.1329 15.2909 20.1641 15.3284 20.2012ZM25.0687 20.2832C25.0469 20.3243 25.0292 20.3516 25.0272 20.3438C25.0272 20.3204 25.0924 20.1915 25.1022 20.1993C25.1062 20.2032 25.0904 20.2403 25.0687 20.2832ZM15.5576 20.502C15.5398 20.5352 15.52 20.5625 15.5141 20.5625C15.5101 20.5625 15.5141 20.545 15.5259 20.5254C15.5595 20.4629 15.5497 20.4219 15.4825 20.3477C15.4311 20.293 15.4351 20.295 15.5042 20.3594L15.5892 20.4395L15.5576 20.502ZM19.763 20.4063C19.7827 20.4278 19.7946 20.4454 19.7887 20.4454C19.7827 20.4454 19.763 20.4278 19.7432 20.4063C19.7235 20.3848 19.7116 20.3672 19.7176 20.3672C19.7235 20.3672 19.7432 20.3848 19.763 20.4063ZM16.0198 20.7403C16.16 20.875 16.1126 20.836 15.8282 20.584C15.7274 20.4942 15.6484 20.4141 15.6543 20.4063C15.6603 20.3985 15.7156 20.4415 15.7768 20.502C15.84 20.5645 15.9487 20.6719 16.0198 20.7403ZM19.8835 20.5079L19.9408 20.5723L19.8776 20.5157C19.8163 20.461 19.8025 20.4454 19.8183 20.4454C19.8222 20.4454 19.8499 20.4747 19.8835 20.5079ZM16.642 21.3555C17.0232 21.6875 17.4203 22.0332 17.5269 22.1231C17.6316 22.2129 17.7185 22.2911 17.7185 22.295C17.7185 22.2989 17.681 22.3731 17.6376 22.4629C17.4914 22.7481 17.2464 23.1622 17.0371 23.4727C16.8356 23.7735 16.5294 24.1661 16.4998 24.1661C16.4919 24.1661 16.002 23.7852 15.4134 23.3184L14.3427 22.4707L14.4099 22.3809C14.6785 22.0274 15.0914 21.3946 15.3817 20.8848C15.4864 20.7012 15.5852 20.5332 15.599 20.5079C15.6267 20.4629 15.6267 20.4629 15.7887 20.6075C15.8776 20.6856 16.2627 21.0235 16.642 21.3555ZM24.8119 20.6211C24.8257 20.6211 24.8593 20.6016 24.8869 20.5762C24.9304 20.5391 24.9324 20.5391 24.9087 20.5723C24.8277 20.6856 24.8356 20.6836 24.719 20.6075C24.5906 20.5235 24.5788 20.5 24.6993 20.5704C24.7487 20.5977 24.798 20.6211 24.8119 20.6211ZM20.0099 20.6114C20.0356 20.6387 20.0514 20.6602 20.0455 20.6602C20.0415 20.6602 20.0158 20.6387 19.9901 20.6114C19.9645 20.584 19.9487 20.5625 19.9546 20.5625C19.9585 20.5625 19.9842 20.584 20.0099 20.6114ZM28.879 20.6309C28.9047 20.6582 28.9205 20.6797 28.9146 20.6797C28.9106 20.6797 28.885 20.6582 28.8593 20.6309C28.8336 20.6036 28.8178 20.5821 28.8237 20.5821C28.8277 20.5821 28.8534 20.6036 28.879 20.6309ZM15.4469 20.6993C15.4252 20.7422 15.4015 20.7774 15.3976 20.7774C15.3916 20.7774 15.4055 20.7422 15.4272 20.6993C15.4489 20.6563 15.4726 20.6211 15.4766 20.6211C15.4825 20.6211 15.4687 20.6563 15.4469 20.6993ZM20.1403 20.7227L20.1976 20.7872L20.1343 20.7305C20.0731 20.6758 20.0593 20.6602 20.0751 20.6602C20.079 20.6602 20.1067 20.6895 20.1403 20.7227ZM12.3852 20.795C12.3576 20.8497 12.3674 20.8653 12.559 21.0313C12.6479 21.1094 12.721 21.1778 12.721 21.1817C12.721 21.1856 12.6321 21.1192 12.5235 21.0313C12.4148 20.9434 12.3259 20.8692 12.3259 20.8633C12.3259 20.8575 12.3417 20.8262 12.3595 20.795C12.3971 20.7325 12.4208 20.7325 12.3852 20.795ZM20.2667 20.8262C20.2924 20.8536 20.3082 20.875 20.3022 20.875C20.2983 20.875 20.2726 20.8536 20.2469 20.8262C20.2213 20.7989 20.2055 20.7774 20.2114 20.7774C20.2153 20.7774 20.241 20.7989 20.2667 20.8262ZM15.3679 20.836C15.3561 20.8575 15.3422 20.875 15.3363 20.875C15.3324 20.875 15.3363 20.8575 15.3482 20.836C15.36 20.8145 15.3738 20.7969 15.3798 20.7969C15.3837 20.7969 15.3798 20.8145 15.3679 20.836ZM16.2568 20.9434C16.2943 20.9805 16.32 21.0118 16.3141 21.0118C16.3082 21.0118 16.2746 20.9805 16.2371 20.9434C16.1995 20.9063 16.1738 20.875 16.1798 20.875C16.1857 20.875 16.2193 20.9063 16.2568 20.9434ZM20.563 21.084C20.563 21.0899 20.5097 21.0489 20.4445 20.9922C20.3793 20.9356 20.3259 20.8868 20.3259 20.8809C20.3259 20.875 20.3793 20.9161 20.4445 20.9727C20.5097 21.0293 20.563 21.0782 20.563 21.084ZM15.2672 21.0059C15.1684 21.1778 14.8998 21.6094 14.7892 21.7735C14.6924 21.918 14.6153 22.0137 14.6864 21.9004C15.0341 21.3555 15.1941 21.0997 15.2474 21.0059C15.283 20.9454 15.3166 20.8946 15.3205 20.8946C15.3264 20.8946 15.3027 20.9454 15.2672 21.0059ZM20.642 21.1387C20.6677 21.1661 20.6835 21.1875 20.6776 21.1875C20.6736 21.1875 20.6479 21.1661 20.6222 21.1387C20.5966 21.1114 20.5808 21.0899 20.5867 21.0899C20.5906 21.0899 20.6163 21.1114 20.642 21.1387ZM17.9477 21.8555C17.8489 22.0606 17.758 22.2325 17.7482 22.2364C17.7363 22.2403 17.6889 22.2071 17.6395 22.1622L17.5506 22.0821L17.6435 22.1543L17.7363 22.2266L17.9259 21.8536C18.0287 21.6485 18.1176 21.4805 18.1215 21.4805C18.1274 21.4805 18.0484 21.6485 17.9477 21.8555ZM21.3195 21.75C21.3808 21.7989 21.4321 21.8418 21.4321 21.8457C21.4321 21.8497 21.3748 21.8125 21.3057 21.7637L21.1793 21.6758L21.1338 21.7305C21.1082 21.7598 21.0706 21.8067 21.0509 21.8321C21.0153 21.8809 21.0153 21.8809 21.0489 21.8223C21.1279 21.6895 21.1655 21.6407 21.1852 21.6524C21.1951 21.6582 21.2563 21.7032 21.3195 21.75ZM20.9976 21.9297C20.9857 21.9512 20.9719 21.9688 20.9659 21.9688C20.962 21.9688 20.9659 21.9512 20.9778 21.9297C20.9897 21.9082 21.0035 21.8907 21.0094 21.8907C21.0134 21.8907 21.0094 21.9082 20.9976 21.9297ZM20.8297 22.2032C20.8119 22.2344 20.7941 22.2618 20.7882 22.2618C20.7842 22.2618 20.7921 22.2344 20.8099 22.2032C20.8277 22.17 20.8455 22.1446 20.8514 22.1446C20.8553 22.1446 20.8474 22.17 20.8297 22.2032ZM20.7506 22.3399C20.7329 22.3711 20.7151 22.3985 20.7092 22.3985C20.7052 22.3985 20.7131 22.3711 20.7309 22.3399C20.7487 22.3067 20.7664 22.2813 20.7724 22.2813C20.7763 22.2813 20.7684 22.3067 20.7506 22.3399ZM20.6815 22.4571C20.6697 22.4786 20.6558 22.4961 20.6499 22.4961C20.6459 22.4961 20.6499 22.4786 20.6617 22.4571C20.6736 22.4356 20.6874 22.418 20.6934 22.418C20.6973 22.418 20.6934 22.4356 20.6815 22.4571ZM19.7136 24.0879C19.68 24.1465 19.6484 24.1954 19.6425 24.1954C19.6385 24.1954 19.6642 24.1387 19.6978 24.0684C19.7334 23.9981 19.765 23.9493 19.7689 23.959C19.7729 23.9707 19.7472 24.0293 19.7136 24.0879ZM20.2766 24.3321C20.7704 24.6954 21.1595 24.9668 21.6336 25.2793L21.9852 25.5098L21.9417 25.5801C21.4716 26.3536 21.0035 27.0313 20.725 27.3399L20.6282 27.4454L19.6069 26.6387C19.0459 26.1954 18.5877 25.8282 18.5877 25.8223C18.5877 25.8184 18.6726 25.7071 18.7773 25.5762C19.0025 25.2911 19.3462 24.7832 19.5852 24.3809C19.8242 23.9786 19.8104 23.9961 19.838 24.0137C19.8519 24.0215 20.0494 24.1641 20.2766 24.3321ZM16.6084 24.1465C16.5827 24.1836 16.5551 24.2149 16.5452 24.2149C16.5294 24.2149 16.5452 24.1875 16.6104 24.1114C16.6558 24.0567 16.6558 24.0743 16.6084 24.1465ZM19.5951 24.293C19.5832 24.3145 19.5694 24.3321 19.5635 24.3321C19.5595 24.3321 19.5635 24.3145 19.5753 24.293C19.5872 24.2715 19.601 24.254 19.6069 24.254C19.6109 24.254 19.6069 24.2715 19.5951 24.293ZM20.4247 24.3829C20.4247 24.3887 20.399 24.375 20.3655 24.3516C20.3338 24.3282 20.3062 24.3047 20.3062 24.3008C20.3062 24.295 20.3338 24.3086 20.3655 24.3321C20.399 24.3555 20.4247 24.379 20.4247 24.3829ZM20.638 24.5352C20.644 24.545 20.6064 24.5235 20.5551 24.4883C20.5037 24.4512 20.4563 24.4122 20.4484 24.4024C20.4425 24.3926 20.48 24.4141 20.5314 24.4493C20.5827 24.4864 20.6301 24.5254 20.638 24.5352ZM19.4173 24.586C19.4055 24.6075 19.3916 24.625 19.3857 24.625C19.3817 24.625 19.3857 24.6075 19.3976 24.586C19.4094 24.5645 19.4232 24.5469 19.4292 24.5469C19.4331 24.5469 19.4292 24.5645 19.4173 24.586ZM20.8988 24.7188C20.9146 24.7344 20.8731 24.711 20.804 24.6641C20.7348 24.6172 20.6736 24.5704 20.6657 24.5586C20.6519 24.5352 20.8534 24.6739 20.8988 24.7188ZM19.3659 24.668C19.3205 24.7461 19.0341 25.1661 19.0163 25.1817C18.9887 25.2071 19.0361 25.1329 19.2158 24.8633C19.2968 24.7442 19.3679 24.6446 19.3719 24.6446C19.3758 24.6446 19.3738 24.6563 19.3659 24.668ZM21.0568 24.8321C21.0568 24.8379 21.0311 24.8243 20.9976 24.8008C20.9659 24.7774 20.9383 24.754 20.9383 24.75C20.9383 24.7442 20.9659 24.7579 20.9976 24.7813C21.0311 24.8047 21.0568 24.8282 21.0568 24.8321ZM21.2543 24.9688C21.2543 24.9747 21.2148 24.9512 21.1655 24.918C21.1161 24.8848 21.0766 24.8536 21.0766 24.8477C21.0766 24.8418 21.1161 24.8653 21.1655 24.8985C21.2148 24.9317 21.2543 24.9629 21.2543 24.9688ZM22.2993 24.9903C22.2756 25.0313 22.2459 25.0723 22.2361 25.084C22.2143 25.1055 22.2538 25.0274 22.2973 24.961C22.3447 24.8887 22.3467 24.9122 22.2993 24.9903ZM22.1985 25.1563C22.1827 25.1817 22.1353 25.2598 22.0938 25.3321C22.0504 25.4063 22.0089 25.4649 21.999 25.4649C21.9911 25.4649 22.0089 25.4278 22.0405 25.3809C22.0701 25.336 22.1215 25.2579 22.1511 25.2051C22.1808 25.1543 22.2084 25.1133 22.2163 25.1133C22.2222 25.1133 22.2143 25.1329 22.1985 25.1563ZM18.6074 25.7247C18.6074 25.7286 18.5877 25.7481 18.564 25.7696L18.5185 25.8067L18.5561 25.7618C18.5916 25.7207 18.6074 25.709 18.6074 25.7247Z" fill="black"/>
</svg>
