<svg width="212" height="13" viewBox="0 0 212 13" fill="none" xmlns="http://www.w3.org/2000/svg">
<path d="M7.8 1.354H7.072V3.837H6.162V0.132H5.408V3.837H4.446V1.341H3.731V4.591H7.8V1.354ZM3.497 6.229H7.8V5.449H3.51L3.497 6.229ZM2.483 0.119C2.08 0.977 1.3 2.017 0.585 2.693C0.728 2.875 0.949 3.226 1.053 3.421C1.859 2.654 2.743 1.484 3.289 0.456999L2.483 0.119ZM2.756 2.706C2.197 4.058 1.3 5.449 0.429 6.385C0.598 6.567 0.858 7.022 0.949 7.217C1.261 6.879 1.56 6.476 1.859 6.034V11.988H2.717V4.643C3.016 4.097 3.289 3.551 3.523 3.005L2.756 2.706ZM4.147 6.775C4.108 8.829 3.978 10.259 3.068 11.078C3.263 11.234 3.536 11.572 3.64 11.78C4.745 10.779 4.953 9.115 4.992 6.775H4.147ZM7.202 9.193V6.749H6.383V9.128C6.383 9.635 6.175 9.856 6.019 9.96C6.149 10.155 6.331 10.571 6.383 10.792C6.526 10.61 6.799 10.363 8.463 9.31C8.385 9.141 8.281 8.829 8.229 8.608L7.202 9.193ZM11.011 3.395C10.855 5.007 10.608 6.411 10.192 7.62C9.841 6.489 9.581 5.189 9.425 3.785C9.451 3.668 9.503 3.525 9.542 3.395H11.011ZM12.441 3.395V2.563H9.789C9.984 1.835 10.127 1.055 10.257 0.274999L9.425 0.119C9.139 2.095 8.645 3.98 7.8 5.202C7.995 5.371 8.281 5.735 8.398 5.917C8.58 5.67 8.736 5.371 8.879 5.072C9.1 6.411 9.386 7.633 9.776 8.712C9.269 9.804 8.567 10.688 7.618 11.377C7.8 11.52 8.125 11.871 8.229 12.027C9.048 11.377 9.685 10.61 10.192 9.687C10.647 10.597 11.219 11.338 11.947 11.91C12.077 11.676 12.337 11.338 12.532 11.182C11.726 10.623 11.115 9.791 10.647 8.764C11.258 7.282 11.609 5.514 11.83 3.395H12.441ZM31.382 2.108V1.263H28.002C28.158 0.937999 28.314 0.6 28.444 0.274999L27.547 0.0279995C27.105 1.211 26.377 2.407 25.532 3.174C25.753 3.33 26.091 3.681 26.247 3.85C26.689 3.369 27.144 2.771 27.547 2.108H31.382ZM28.145 2.628C28.639 3.148 29.289 3.85 29.614 4.266L30.251 3.707C29.9 3.291 29.237 2.628 28.743 2.147L28.145 2.628ZM37.232 1.263H33.319C33.462 0.937999 33.579 0.573999 33.683 0.235999L32.773 0.0279995C32.448 1.237 31.876 2.42 31.148 3.174C31.369 3.304 31.733 3.59 31.889 3.746C32.279 3.304 32.63 2.732 32.955 2.108H37.232V1.263ZM37.258 7.984V7.113H31.785C31.941 6.554 32.045 5.956 32.123 5.345C33.683 5.176 35.126 4.955 36.257 4.656L35.685 3.863C35.49 3.915 35.269 3.967 35.035 4.019L35.646 3.447C35.36 3.096 34.762 2.511 34.307 2.108L33.696 2.615C34.164 3.044 34.749 3.655 35.035 4.019C32.877 4.487 29.458 4.773 26.598 4.903C26.702 5.111 26.806 5.475 26.819 5.722C28.158 5.67 29.64 5.579 31.057 5.449C30.979 6.021 30.888 6.58 30.732 7.113H25.727V7.984H30.42C29.77 9.401 28.47 10.558 25.701 11.182C25.883 11.377 26.13 11.741 26.221 11.988C29.315 11.221 30.732 9.83 31.46 8.114C32.513 10.077 34.294 11.416 36.647 12.027C36.79 11.754 37.05 11.39 37.271 11.182C35.087 10.701 33.384 9.57 32.409 7.984H37.258ZM60.359 2.498H57.85V1.276H60.359V2.498ZM61.256 0.626H56.966V3.148H61.256V0.626ZM55.016 2.498H52.533V1.276H55.016V2.498ZM55.926 0.626H51.662V3.148H55.926V0.626ZM52.949 7.542V6.424H55.887V7.542H52.949ZM52.949 4.578H55.887V5.683H52.949V4.578ZM59.969 5.683H56.875V4.578H59.969V5.683ZM59.969 7.542H56.875V6.424H59.969V7.542ZM62.153 9.31H56.875V8.322H60.957V3.798H52.013V8.322H55.887V9.31H50.713V10.155H55.887V11.988H56.875V10.155H62.153V9.31ZM77.883 7.373V6.034H80.86V7.373H77.883ZM77.883 3.941H80.86V5.267H77.883V3.941ZM84.877 3.941V5.267H81.835V3.941H84.877ZM84.877 7.373H81.835V6.034H84.877V7.373ZM87.204 9.232H81.835V8.166H85.839V3.135H81.835V2.186H86.762V1.302H81.835V0.132H80.86V1.302H75.998V2.186H80.86V3.135H76.96V8.166H80.86V9.232H75.608V10.103H80.86V12.027H81.835V10.103H87.204V9.232ZM106.34 6.97C106.899 6.97 107.367 6.541 107.367 5.943C107.367 5.358 106.899 4.929 106.34 4.929C105.781 4.929 105.313 5.358 105.313 5.943C105.313 6.541 105.781 6.97 106.34 6.97ZM135.46 2.277H131.937V1.224H135.46V2.277ZM135.46 4.045H131.937V2.966H135.46V4.045ZM136.37 0.483H131.066V4.786H136.37V0.483ZM128.258 6.541V4.981H129.376V6.541H128.258ZM126.399 4.981H127.491V6.541H126.399V4.981ZM127.491 2.732V4.201H126.399V2.732H127.491ZM129.376 4.201H128.258V2.732H129.376V4.201ZM137.228 6.398V5.54H130.169V1.887H128.323V0.132H127.426V1.887H125.658V8.036H126.399V7.386H127.426V11.975H128.323V7.386H130.169V6.398H131.586C131.04 7.451 130.143 8.387 129.168 8.998C129.376 9.128 129.701 9.375 129.844 9.518C130.39 9.128 130.91 8.647 131.378 8.088H132.431C131.755 9.336 130.702 10.402 129.532 11.104C129.714 11.221 130.052 11.455 130.208 11.598C131.417 10.779 132.574 9.544 133.315 8.088H134.355C133.835 9.531 132.951 10.753 131.846 11.559C132.041 11.676 132.379 11.897 132.535 12.027C133.64 11.117 134.615 9.739 135.187 8.088H136.136C136.006 10.09 135.837 10.857 135.616 11.091C135.512 11.195 135.408 11.221 135.226 11.208C135.031 11.208 134.563 11.208 134.056 11.169C134.173 11.377 134.251 11.715 134.264 11.949C134.81 11.975 135.33 11.975 135.603 11.949C135.941 11.923 136.136 11.845 136.344 11.637C136.682 11.26 136.838 10.259 137.02 7.672C137.033 7.542 137.046 7.295 137.046 7.295H131.976C132.158 7.009 132.34 6.71 132.483 6.398H137.228ZM158.327 4.253H160.628C160.316 4.604 159.939 4.981 159.588 5.228V6.125H157.82V6.918H159.588V9.206C159.588 9.336 159.549 9.375 159.393 9.375C159.237 9.388 158.756 9.388 158.21 9.375C158.34 9.609 158.47 9.947 158.509 10.194C159.237 10.194 159.718 10.181 160.017 10.038C160.355 9.895 160.433 9.661 160.433 9.219V6.918H162.175V6.125H160.433V5.462C160.979 5.007 161.564 4.409 161.993 3.85L161.447 3.447L161.291 3.499H158.379C158.574 3.174 158.756 2.797 158.938 2.407H162.175V1.588H159.25C159.406 1.172 159.536 0.717 159.653 0.287999L158.821 0.0799996C158.535 1.367 158.002 2.654 157.326 3.499C157.534 3.616 157.859 3.876 158.028 4.019C158.132 3.889 158.236 3.746 158.327 3.59V4.253ZM154.635 4.123C154.635 5.683 154.492 7.841 153.283 9.466C153.478 9.583 153.764 9.83 153.907 9.999C155.038 8.517 155.35 6.593 155.428 4.981H156.689C156.585 7.932 156.442 9.011 156.234 9.271C156.156 9.414 156.052 9.44 155.909 9.427C155.753 9.427 155.415 9.427 155.038 9.388C155.142 9.609 155.22 9.947 155.246 10.207C155.649 10.22 156.039 10.22 156.286 10.194C156.572 10.155 156.78 10.064 156.962 9.817C157.274 9.414 157.404 8.192 157.547 4.578V4.175H155.441V4.136V2.706H157.794V1.874H156.338L156.442 1.848C156.312 1.393 156.013 0.678 155.753 0.132L154.908 0.301C155.103 0.795 155.363 1.419 155.506 1.874H153.517V2.706H154.635V4.123ZM153.049 2.147C152.75 1.614 152.113 0.782 151.567 0.145L150.839 0.521999C151.346 1.172 151.983 2.069 152.282 2.628L153.049 2.147ZM153.088 6.294L152.932 6.32H151.645C152.347 5.449 153.27 4.084 153.777 3.33L153.127 3.044L152.945 3.122H150.41V3.915H152.412C151.879 4.708 151.151 5.735 150.878 6.034C150.657 6.268 150.462 6.359 150.267 6.411C150.371 6.606 150.553 7.061 150.618 7.295C150.722 7.191 151.06 7.113 151.385 7.113H152.555C152.165 9.102 151.32 10.545 150.189 11.351C150.384 11.481 150.696 11.819 150.826 12.014C151.45 11.533 152.009 10.87 152.451 10.025C153.465 11.52 155.09 11.78 157.768 11.78C159.185 11.78 160.81 11.754 162.032 11.676C162.071 11.416 162.201 10.987 162.344 10.779C161.031 10.896 159.146 10.948 157.781 10.948C155.285 10.948 153.647 10.753 152.815 9.245C153.127 8.452 153.374 7.529 153.53 6.476L153.088 6.294ZM178.984 7.971L177.723 8.439V4.175H178.958V3.278H177.723V0.274999H176.826V3.278H175.474V4.175H176.826V8.764C176.254 8.972 175.734 9.154 175.305 9.297L175.617 10.246C176.631 9.843 177.931 9.349 179.166 8.829L178.984 7.971ZM185.939 4.448C185.653 5.644 185.276 6.723 184.756 7.685C184.561 6.411 184.405 4.799 184.34 3.005H187.057V2.108H186.108L186.758 1.666C186.446 1.224 185.783 0.626 185.211 0.209999L184.561 0.626C185.107 1.055 185.744 1.692 186.056 2.108H184.314C184.301 1.471 184.301 0.795 184.301 0.119H183.378C183.378 0.795 183.391 1.458 183.417 2.108H179.504V6.125C179.504 7.802 179.374 9.934 178.074 11.429C178.282 11.546 178.646 11.858 178.789 12.04C180.18 10.428 180.401 7.958 180.401 6.138V5.566H182.039C182 7.893 181.948 8.725 181.805 8.92C181.753 9.037 181.649 9.05 181.493 9.05C181.324 9.05 180.921 9.05 180.479 9.011C180.609 9.232 180.674 9.57 180.7 9.83C181.168 9.856 181.623 9.856 181.87 9.83C182.182 9.791 182.377 9.7 182.533 9.466C182.78 9.141 182.832 8.101 182.871 5.137C182.884 5.02 182.884 4.747 182.884 4.747H180.401V3.005H183.443C183.534 5.254 183.729 7.282 184.067 8.829C183.365 9.83 182.52 10.662 181.506 11.286C181.701 11.416 182.052 11.767 182.182 11.949C183.014 11.39 183.729 10.701 184.353 9.908C184.756 11.13 185.302 11.858 186.03 11.858C186.875 11.858 187.148 11.26 187.291 9.31C187.057 9.219 186.758 9.024 186.576 8.816C186.524 10.311 186.394 10.948 186.147 10.948C185.705 10.948 185.328 10.22 185.016 8.972C185.809 7.737 186.407 6.281 186.836 4.591L185.939 4.448ZM211.991 2.966V2.017H206.83L206.999 1.952C206.817 1.445 206.375 0.626 205.985 0.0279995L205.062 0.314C205.361 0.833999 205.712 1.51 205.92 2.017H200.382V2.966H205.647V4.721H201.643V10.493H202.605V5.67H205.647V11.975H206.622V5.67H209.859V9.258C209.859 9.44 209.794 9.492 209.56 9.518C209.339 9.518 208.559 9.518 207.675 9.492C207.805 9.765 207.974 10.155 208.013 10.454C209.118 10.454 209.846 10.441 210.288 10.285C210.704 10.116 210.834 9.83 210.834 9.271V4.721H206.622V2.966H211.991Z" fill="black"/>
</svg>
