<svg width="41" height="54" viewBox="0 0 41 54" fill="none" xmlns="http://www.w3.org/2000/svg">
<ellipse cx="20.5" cy="20.6656" rx="20.5" ry="20.6656" fill="black"/>
<path d="M20.5536 54L7.67542 36.9509H33.4318L20.5536 54Z" fill="black"/>
<ellipse cx="20.5" cy="20.6657" rx="16.4" ry="16.5325" fill="#FED801"/>
<g clip-path="url(#clip0_1417_1701)">
<path d="M28.967 18.5286C28.4777 18.5286 28.0026 18.5756 27.5478 18.6896L25.7359 13.7796H26.3263C27.2554 13.7796 28.1341 13.4349 28.8008 12.7827L29.426 12.1783C29.7102 11.9003 29.7169 11.4464 29.4411 11.16C29.1653 10.8735 28.7115 10.8686 28.4274 11.1466L27.8022 11.7446C27.4046 12.1336 26.8804 12.3341 26.3264 12.3341H24.7034C24.4685 12.3341 24.2484 12.4648 24.1145 12.6593C23.9806 12.854 23.9496 13.1096 24.0318 13.3314L24.7214 15.1981C24.717 15.198 24.7125 15.2117 24.7081 15.2117C24.7066 15.2117 24.705 15.2249 24.7034 15.2249H15.5296L14.2907 13.1207L15.6364 12.649C15.9678 12.5342 16.1683 12.2106 16.1106 11.8621C16.0529 11.5138 15.754 11.2742 15.4036 11.2742H11.4644C10.9124 11.2742 10.4631 11.7084 10.4631 12.2649C10.4631 13.1265 11.1577 13.8182 12.0113 13.8182C12.1824 13.8182 12.352 13.7848 12.5157 13.7282L12.9079 13.5901L14.1645 15.7097L13.1993 18.6279C12.8827 18.5634 12.5576 18.5229 12.225 18.5122C10.5437 18.4579 8.96979 19.1036 7.80707 20.3138C6.68927 21.4772 6.10179 23.0111 6.15312 24.6328C6.25177 27.7488 8.75042 30.2675 11.8414 30.3669C11.9057 30.369 11.9695 30.37 12.0334 30.37C13.6403 30.37 15.1412 29.7229 16.2594 28.5591C17.1641 27.6173 17.7211 26.4025 17.8734 25.1499H19.0254C19.2737 25.3426 19.5951 25.5 19.9467 25.5C20.7301 25.5 21.3675 24.8606 21.3675 24.0707C21.3675 23.8143 21.2995 23.5756 21.1819 23.367L25.2006 16.4961L26.2093 19.222C24.3516 20.2202 23.0838 22.1929 23.0838 24.459C23.0838 27.7292 25.7229 30.3898 28.967 30.3898C32.211 30.3898 34.8501 27.7293 34.8501 24.4592C34.8501 21.189 32.211 18.5286 28.967 18.5286ZM23.4493 16.6704L19.9503 22.6534C19.949 22.6534 19.9479 22.6474 19.9467 22.6474C19.9426 22.6474 19.9387 22.6567 19.9346 22.6568L16.3853 16.6705H23.4493V16.6704ZM15.1345 17.3456L18.7073 23.3694C18.6483 23.4755 18.6032 23.6082 18.5724 23.7046H17.8721C17.6244 21.681 16.3366 19.9349 14.5592 19.0792L15.1345 17.3456ZM13.2662 23.7046C13.2182 23.6082 13.1629 23.5575 13.1011 23.4894L13.9484 20.9237C14.9731 21.4947 15.7227 22.5483 15.9399 23.7046H13.2662ZM14.8862 27.2183C14.101 28.0355 13.0404 28.4748 11.9025 28.4377C9.81659 28.3707 8.13053 26.6725 8.06401 24.5698C8.02931 23.4743 8.42571 22.4391 9.18037 21.6538C9.93531 20.8681 10.9484 20.4356 12.0332 20.4356C12.0767 20.4356 12.1201 20.4366 12.164 20.4379C12.3076 20.4425 12.449 20.4557 12.5883 20.4754L11.7313 23.0674C11.1034 23.2156 10.6339 23.7834 10.6339 24.4609C10.6339 25.2507 11.2712 25.8871 12.0546 25.8871C12.5853 25.8871 13.0482 25.6318 13.2921 25.15H15.9398C15.8011 25.9208 15.4408 26.641 14.8862 27.2183ZM28.967 28.4629C26.7772 28.4629 24.9955 26.6668 24.9955 24.4594C24.9955 23.0205 25.7527 21.7571 26.8861 21.0512L28.2337 24.6922C28.3413 24.9829 28.6147 25.1624 28.9054 25.1624C28.9887 25.1624 29.0734 25.1477 29.156 25.1165C29.5269 24.9771 29.7154 24.5607 29.5769 24.1869L28.2225 20.5274C28.4638 20.4811 28.7124 20.4558 28.967 20.4558C31.1568 20.4558 32.9383 22.2519 32.9383 24.4594C32.9383 26.6668 31.1569 28.4629 28.967 28.4629Z" fill="black"/>
</g>
<defs>
<clipPath id="clip0_1417_1701">
<rect width="28.7" height="28.9318" fill="white" transform="translate(6.15002 6.19971)"/>
</clipPath>
</defs>
</svg>
